<?xml version="1.0" standalone="no"?>
<!DOCTYPE svg PUBLIC "-//W3C//DTD SVG 20010904//EN"
 "http://www.w3.org/TR/2001/REC-SVG-20010904/DTD/svg10.dtd">
<svg version="1.0" xmlns="http://www.w3.org/2000/svg"
 width="312.000000pt" height="312.000000pt" viewBox="0 0 312.000000 312.000000"
 preserveAspectRatio="xMidYMid meet">

<g transform="translate(0.000000,312.000000) scale(0.100000,-0.100000)"
fill="#000000" stroke="none">
<path d="M2118 2773 c-64 -64 -68 -66 -86 -50 -10 9 -33 20 -50 23 -29 6 -38
0 -100 -60 -38 -36 -72 -66 -76 -66 -5 0 -21 11 -38 25 -50 42 -76 34 -156
-49 -77 -79 -85 -102 -56 -146 9 -14 82 -91 163 -173 l146 -147 -395 -395
-395 -395 -155 154 c-152 152 -192 182 -227 169 -10 -3 -48 -35 -85 -72 -79
-76 -87 -107 -42 -161 l26 -31 -66 -68 c-73 -76 -83 -108 -47 -152 l19 -24
-69 -71 c-38 -40 -69 -79 -69 -88 0 -36 37 -79 247 -288 194 -193 248 -238
285 -238 5 0 42 31 82 69 l71 69 24 -19 c42 -34 71 -25 141 46 35 36 68 65 73
65 5 0 22 -11 39 -25 50 -42 79 -34 158 43 63 61 70 72 70 106 0 36 -9 48
-160 200 l-159 162 394 394 395 395 147 -146 c82 -81 159 -154 173 -163 43
-29 63 -20 144 64 87 89 91 107 39 162 l-27 28 72 74 c40 41 72 80 72 87 0 8
-9 29 -21 48 l-20 33 65 68 c103 107 111 89 -172 372 -284 285 -268 277 -374
171z m340 -215 c116 -118 212 -220 212 -227 0 -7 -19 -31 -42 -54 -83 -81 -52
-97 -303 154 -124 123 -225 228 -225 233 0 6 25 36 57 68 43 43 60 55 72 48 9
-5 112 -105 229 -222z m-173 -168 l299 -300 -59 -60 c-33 -33 -64 -60 -69 -60
-13 0 -572 560 -587 588 -12 21 -8 27 41 77 30 30 59 55 65 55 6 0 145 -135
310 -300z m-170 -170 l390 -390 -63 -62 -62 -63 -390 390 c-215 214 -390 394
-390 400 0 13 102 115 115 115 5 0 186 -175 400 -390z m-530 -600 l-395 -395
-37 38 -38 37 395 395 395 395 37 -37 38 -38 -395 -395z m-483 -397 c214 -214
388 -392 388 -398 0 -13 -102 -115 -115 -115 -6 0 -186 175 -400 390 l-389
390 59 60 c33 33 62 60 65 60 3 0 179 -174 392 -387z m-157 -173 l300 -300
-60 -60 c-33 -33 -64 -60 -70 -60 -16 0 -598 586 -594 598 6 17 103 120 114
121 5 1 145 -134 310 -299z m-178 -162 c123 -122 223 -229 223 -238 0 -9 -24
-40 -54 -69 -45 -44 -57 -51 -72 -43 -26 14 -444 436 -444 447 0 10 110 125
119 125 3 0 105 -100 228 -222z"/>
</g>
</svg>
